<?xml version="1.0" encoding="utf-8"?>
<!-- Generator: Adobe Illustrator 18.0.0, SVG Export Plug-In . SVG Version: 6.00 Build 0)  -->
<!DOCTYPE svg PUBLIC "-//W3C//DTD SVG 1.1//EN" "http://www.w3.org/Graphics/SVG/1.1/DTD/svg11.dtd">
<svg version="1.1" id="Layer_1" xmlns="http://www.w3.org/2000/svg" xmlns:xlink="http://www.w3.org/1999/xlink" x="0px" y="0px"
	 viewBox="41 111.3 765 350" enable-background="new 41 111.3 765 350" xml:space="preserve">
<g>
	<path fill="#38A934" d="M339.4,378.8c2.5-9.9,7-22.6,11.9-33.8c7.4-17.7,15-36,15-52.8c0-15-6.5-30-17.7-41.4
		c-9.9-10.1-28.5-22-60.2-22c-6.3,0-11.9,0.4-17.2,1.1c1.4,5.2,2.7,10.7,3.6,16.3c4-0.5,8.5-0.9,13.6-0.9c26,0,40.7,9.4,48.6,17.2
		c8.1,8.1,12.8,19,12.8,29.6c0,13.4-7,30.2-13.7,46.4c-4.7,11.4-9.8,25.1-12.6,36.3c-6.5,26.2-17,67.6-43,67.6
		c-10.1,0-21.1-6.5-31.8-15c-5.2,2.7-10.8,5.1-17,7.2c15,13.4,31.4,24.4,48.8,24.4C319.3,459,332.1,408,339.4,378.8"/>
	<path fill="#38A934" d="M111,270.2c-6.7-16.8-13-38.1-13-56.2c0-31.8,7.8-57.8,21.5-71.4c8.1-8.1,18.1-11.9,30.4-11.9
		c31.3,0,90,28.5,114.7,81.8c5.2-0.9,11-1.6,17.3-1.8c-26.4-63.6-94.7-96.7-132.1-96.7c-50.4,0-68.3,51.7-68.3,99.9
		c0,22.9,8.1,47.3,14.1,62.2C100.3,274.2,105.4,272.2,111,270.2"/>
	<path fill="#38A934" d="M221.4,401.4c-9.4,3.4-20.4,5.6-33.2,5.6c-38.3,0-80.4-17.2-107-43.7C67.6,349.7,60,335.4,60,323.7
		c0-17.2,6.9-28.9,19.5-38.3c-1.8-4.5-4-9.8-6-15.9c-17.7,11.6-30,28.2-30,54.2c0,16.3,9.2,34.3,26,51.1
		c23.5,23.5,66.9,48.6,118.5,48.6c18.2,0,33.2-4,45.7-9.4C229.5,409.9,225.2,405.3,221.4,401.4"/>
	<path fill="#003C7C" d="M749.2,251.6c-20.4,0-37.4,3.8-52.9,9.9v102.6h34.5v-82.4c4.9-2.2,11.2-3.4,17.7-3.4
		c18.6,0,22.2,11.4,22.2,32.3v53.5H805v-58.7C805,272.5,794,251.6,749.2,251.6"/>
	<rect x="418.5" y="213.3" fill="#003C7C" width="34.3" height="150.7"/>
	<polygon fill="#003C7C" points="492.4,364 533.1,364 490.4,303.4 529.5,255.6 490.4,255.6 453,304.7 	"/>
	<path fill="#003C7C" d="M606.2,277.8c15,0,24.9,9.4,24.9,31.1c0,21-7.8,32.3-26.4,32.3c-5.4,0-12.1-1.1-15.5-2.3v-57.6
		C594.3,278.9,600.1,277.8,606.2,277.8 M555.1,261.3v144.9h34.3v-41.4c7.4,1.3,13,1.6,19.5,1.6c37.9,0,57.8-21.7,57.8-58
		c0-36.5-19.5-57.1-60.2-57.1C588.4,251.6,569.4,255.6,555.1,261.3"/>
	<path fill="#38A934" d="M200.3,264.6v-17c-4.2-1.1-9-1.8-13.9-1.8c-19.9,0-29.6,13.4-29.6,26.9c0,13,4.7,25.3,22.8,52.9
		c7.2-0.9,14.5-1.6,21.7-1.8c-15.5-28.9-19.3-39.2-19.3-46.6c0-8.7,4.9-13,15-13C198.1,264.6,199.2,264.6,200.3,264.6"/>
	<path fill="#38A934" d="M146,289.7c-1.4-4-2.5-10.1-2.9-14.6c-15.9-0.5-27.6,8.5-27.6,21.3c0,10.3,5.2,19.3,27.1,37.9
		c5.4-1.8,13-4,19.3-5.2c-21.3-19.9-24.8-25.1-24.8-31.1C137,293.5,140.1,290.6,146,289.7"/>
	<path fill="#38A934" d="M214.9,264.6v-17c4.2-1.1,9-1.8,13.9-1.8c19.9,0,29.6,13.4,29.6,26.9c0,13-4.7,25.3-22.8,52.9
		c-7.2-0.9-14.5-1.6-21.7-1.8c15.5-28.9,19.5-39.2,19.5-46.6c0-8.7-4.9-13-15-13C217.1,264.6,216,264.6,214.9,264.6"/>
	<path fill="#38A934" d="M268.9,289.7c1.4-4,2.5-10.1,2.9-14.6c15.9-0.5,27.6,8.5,27.6,21.3c0,10.3-5.2,19.3-27.1,37.9
		c-5.4-1.8-13-4-19.3-5.2c21.3-19.9,24.8-25.1,24.8-31.1C277.9,293.5,274.9,290.6,268.9,289.7"/>
	<path fill="#38A934" d="M207.5,360.3c16.1,0,32.3,2.2,49.3,7.2l5.8-19c-19-5.6-37.6-7.9-55.1-7.9s-36,2.3-55.1,7.9l5.8,19
		C175.1,362.5,191.6,360.3,207.5,360.3"/>
	
		<rect x="195" y="206.4" transform="matrix(0.707 0.7072 -0.7072 0.707 215.5509 -82.5842)" fill="#38A934" width="24.9" height="24.9"/>
</g>
</svg>
